# xmcd CD database file
#
# Track frame offsets:
#	150
#	20400
#	39050
#	62912
#	81450
#	109675
#	132987
#	152850
#	170137
#	196800
#
# Disc length: 2969 seconds
#
# Revision: 0
# Processed by: cddbd v1.5.2PL0 Copyright (c) Steve Scherf et al.
# Submitted via: CDex 1.70beta2
#
DISCID=820b970a
DTITLE=Mongo Santamaria Y Justo Betancourt - Ubane
DYEAR=1976
DGENRE=Salsa
TTITLE0=Cantandole Al Amor
TTITLE1=Kindimbia
TTITLE2=Miedo
TTITLE3=Serpentina
TTITLE4=Ubane
TTITLE5=Mañana
TTITLE6=Come Candela
TTITLE7=No Me Importa
TTITLE8=Vengan Pollos
TTITLE9=Cumbia Típica
EXTD=YEAR: 1976
EXTT0=
EXTT1=
EXTT2=
EXTT3=
EXTT4=
EXTT5=
EXTT6=
EXTT7=
EXTT8=
EXTT9=
PLAYORDER=
